<svg xmlns="http://www.w3.org/2000/svg" data-name="Layer 1" viewBox="0 0 1080 1080" id="moon"><path fill="#fff" fill-rule="evenodd" d="M314.45,889.64c.71-.72.41-.52-.07-.19l-.58.74h.05Zm-.6.56h-.05C313.75,890.26,313.76,890.27,313.85,890.2ZM701.07,468.15c-6.06-2.28-12.28-7-19.52-17.28a33.4,33.4,0,0,1-6-29.31c6.51-24.35,14.72-30,26.91-32.2l.43-1.07a33.49,33.49,0,0,1,31.76-22.84h11.16v0A33.45,33.45,0,0,1,778,390.09c10.15,3.17,18.9,10.06,24.62,31.47l-.07,0a33.27,33.27,0,0,1-4.51,27.18c-7.16,10.7-13.7,16-19.89,18.69-4.14,14.21-11.67,25.24-39.09,25.24C712,492.69,705,482.38,701.07,468.15Zm2.23-328.07c-18-7.74-31.19-24-31.19-51.42a53.72,53.72,0,0,1,15.94-38.51l.06.07.06-.07a57.19,57.19,0,0,1,39.58-16.43,54.42,54.42,0,0,1,38.93,16.19c19.22,19.22,20.92,40.34,13.14,58.7-5.92,14-18.06,25-31.67,30.72C734.15,145.26,717.59,146.23,703.3,140.08Zm-23.85,491-3.69-3.39Zm-17.67,4.21.14.16a49.86,49.86,0,0,1,7.72-1.35l-.55-1.85a13.7,13.7,0,0,0,5.07-3l2.76,4.53.51.08a34.49,34.49,0,0,1,2-2.8l-3.69-3.39c-.52.56-1.06,1.09-1.6,1.58l2.76,4.53a38.46,38.46,0,0,0-7.28.3l-.55-1.85a9.92,9.92,0,0,1-6.39-.22Zm-.1-.1.1.1.85-3.29-.1,0ZM418.6,203.59l-2,1a33.31,33.31,0,0,1-24.41,3.68c-36.64-8.54-45.07-33.3-39.68-56.42a49.69,49.69,0,0,1,34.08-36.05c.89-.29,1.8-.54,2.72-.76,23.13-5.39,47.89,3,56.43,39.68h0a33.26,33.26,0,0,1-3,23.14l-.88,1.67-.81,1.71c-2.91,5.73-4.37,8.6-9.05,13.27s-7.53,6.14-13.27,9.05l0-.06ZM239.38,661.94l-.41-2.27a59.74,59.74,0,0,1-15.91,8.17A62.63,62.63,0,0,1,204,671a55.86,55.86,0,0,1-21.17-3.87c-18.7-7.42-33.05-23.58-33.05-51.71,0-22.4,14.92-41.43,33.34-49.92A56.1,56.1,0,0,1,205,560.4a50,50,0,0,1,25.15,5.71l2.26,1.26v-5.48c0-25.88,3.9-51.14,9.68-74.72a477.52,477.52,0,0,1,20.09-61.94c26.52-67,71-124.56,127.32-168.12a421.7,421.7,0,0,1,197.46-83.37,120.47,120.47,0,0,1,43.79,1.47A96.38,96.38,0,0,1,678.2,200.1a106.82,106.82,0,0,1,32.49,64.28c3.07,24.73-2.55,50.86-19.05,72.77-1.51,2-3.22,4.09-5.11,6.2A35.84,35.84,0,0,1,684,346.2l-54.53,54.19c-17.92,27-30.22,53-36.09,80.14-6,27.62-5.43,57.23,2.48,91.23a172.44,172.44,0,0,0,13.52,37c3.12,6.32,6.54,12.45,10.21,18.33a46.83,46.83,0,0,1,2.94-25.39,50.35,50.35,0,0,1,20.21-24,45.55,45.55,0,0,1,35.52-5.49v0c15.78,4.18,29.83,16.27,35.37,40.06h0a33.29,33.29,0,0,1-3,23.15,72.74,72.74,0,0,1-8,12.06,35,35,0,0,1-2.28,2.75,48.34,48.34,0,0,1-21.72,14,42.17,42.17,0,0,1-32-2.89l1.49,1.26c3.34,2.78,7.17,6,12.19,10.86a147,147,0,0,0,52.44,33.4c19.81,7.42,41.71,11.38,65.64,14.48,9.77,1.27,18.8.69,28.92,0,8-.52,16.63-1.07,25.57-1.07,23.55,0,48.61,12.09,67.16,31.8,16.18,17.17,28,40.59,30,67,2.09,28.87-8,51.91-23.07,70.36-13.1,16-29.85,27.83-44.76,36.77-72.62,43.57-150.42,65.27-228,64.09-68.78-1.05-137-20-200.89-57.46-.2,8.23-1.33,14.69-3.22,19.83a51.45,51.45,0,0,1,5.49-.28c21.52,0,36.07,9.32,44.26,22a37.31,37.31,0,0,1,2,3.28A44.5,44.5,0,0,1,487,999.43a46.2,46.2,0,0,1-4.9,20c-7.49,15-23.2,26.83-44.38,26.83-22.37,0-36.9-14-43-31.27a51.86,51.86,0,0,1-2.84-15.88V999a52.26,52.26,0,0,1,.21-5.87c-5.56,9.11-15.15,15.21-34.74,15.21-34.31,0-40.39-15.34-44.32-34.23-18.93-3.94-33.8-9.8-33.8-43.91,0-32.75,14.93-37.35,34.45-42,3.75-15.53,7.34-27.76,24.86-32.13-2.71-3-5.38-6-8-9-24-27.73-44.61-58.55-58.6-89C254.92,721,245.06,692.16,239.38,661.94Z"></path><path fill="#f39b22" d="M761,936.72c-187.57,62.65-391.09-30.24-466.75-212.91C219.36,543,295.93,335.9,468.93,246.17A374.35,374.35,0,0,1,599.24,206.5a70.41,70.41,0,0,1,77.61,62.21c2.92,26.55-8.64,49.61-29.3,65.22-42.18,31.85-73.49,79.67-85.92,132.68a235.25,235.25,0,0,0,139,271.62A234.82,234.82,0,0,0,790.67,756c10.79,0,9.76.12,20.1-.79,3.81-.33,6.14-.55,7.08-.65,49.19-5.51,88.89,40.82,75.43,88.88a70.32,70.32,0,0,1-12.07,23.94c-9.86,12.82-28.62,25.86-49.16,37.24-25.36,14-55.35,26.91-71,32.15"></path><path fill="#fff48c" fill-rule="evenodd" d="M749,901A338.27,338.27,0,1,1,603.37,244a32.56,32.56,0,0,1,25.27,56.65c-1.71,1.53-3.64,2.89-5.46,4.3a273.1,273.1,0,0,0,167.49,488.8c6.19,0,11.43-.13,15.79-.38,4.9-.28,10.09-.74,15.52-1.36a32.56,32.56,0,0,1,29.38,52.22C836,864.22,773.27,892.85,749,901"></path><path fill="#fbcf00" fill-rule="evenodd" d="M484.16,728.1C349.53,614.71,345.35,431,458.24,296c-21.21,14.95-51.77,39.82-69,59.12A338.25,338.25,0,0,0,749,901c24.24-8.1,85.19-34.61,100.55-54.56-93.7,10.86-224.05.78-365.42-118.29"></path><path fill="#f39b22" d="M539.33 860.74A17.95 17.95 0 1 1 551.43 827q6.45 2.32 14.7 4.81 8.05 2.43 15 4.11a18 18 0 1 1-8.44 34.92q-9.15-2.24-16.81-4.53t-16.53-5.52M337.78 642.27a18 18 0 1 1 34.78-9.43A286 286 0 0 0 501.15 803a18 18 0 1 1-18.58 30.82A322.49 322.49 0 0 1 337.78 642.27"></path><path fill="#f39b22" fill-rule="evenodd" d="M439 985.85a13.23 13.23 0 1 1-13.23 13.23A13.23 13.23 0 0 1 439 985.85M398.42 147.93a13.24 13.24 0 1 1-13.23 13.24A13.23 13.23 0 0 1 398.42 147.93zM204.71 594.76a21.4 21.4 0 1 1-21.4 21.4A21.4 21.4 0 0 1 204.71 594.76zM751.59 441a16.7 16.7 0 0 0-4.91 11.29 7.22 7.22 0 0 1-14.43 0A16.82 16.82 0 0 0 716 436a7.21 7.21 0 0 1 0-14.42 16.82 16.82 0 0 0 16.21-16.21 7.22 7.22 0 0 1 14.43 0 16.82 16.82 0 0 0 16.2 16.21 7.21 7.21 0 0 1 0 14.42A16.7 16.7 0 0 0 751.59 441zM373.48 948.24a23.8 23.8 0 0 0-7 16.09 10.29 10.29 0 0 1-20.57 0 24 24 0 0 0-23.11-23.11 10.28 10.28 0 0 1 0-20.56 24 24 0 0 0 23.11-23.12 10.29 10.29 0 0 1 20.57 0 24 24 0 0 0 23.11 23.12 10.28 10.28 0 0 1 0 20.56A23.77 23.77 0 0 0 373.48 948.24zm293-343.06a13.24 13.24 0 1 1-13.23 13.23A13.23 13.23 0 0 1 666.46 605.18zM727.28 67.69a21.4 21.4 0 1 1-21.4 21.39 21.4 21.4 0 0 1 21.4-21.39"></path></svg>